
<svg version="1.0" xmlns="http://www.w3.org/2000/svg"
 width="807.000000pt" height="773.000000pt" viewBox="0 0 807.000000 773.000000"
 preserveAspectRatio="xMidYMid meet" >

<g transform="translate(0.000000,773.000000) scale(0.100000,-0.100000)"
fill="#ffffff" stroke="#ffffff">
<path d="M3910 7044 c-19 -2 -82 -9 -140 -15 -785 -84 -1555 -485 -2079 -1084
-494 -564 -778 -1257 -817 -1993 -5 -91 -4 -132 4 -132 6 0 13 33 16 78 25
316 46 461 96 662 113 452 306 846 602 1229 107 136 403 432 539 539 508 393
1044 610 1689 683 159 18 518 16 690 -5 762 -91 1431 -420 1960 -962 547 -561
861 -1261 920 -2049 5 -77 10 -148 10 -157 0 -10 5 -18 12 -18 26 0 -10 382
-58 616 -101 498 -335 992 -660 1399 -113 141 -348 377 -489 489 -479 382
-1022 614 -1640 701 -104 15 -573 28 -655 19z"/>
<path d="M3935 6464 c-16 -2 -73 -9 -125 -15 -572 -65 -1133 -340 -1556 -763
-471 -471 -744 -1082 -780 -1743 l-7 -123 296 0 297 0 2 478 3 477 340 0 340
0 3 -477 2 -478 40 0 40 0 2 643 3 642 155 0 155 0 3 -317 2 -318 105 0 105 0
2 598 3 597 260 0 260 0 3 -277 2 -278 238 -2 237 -3 3 -642 2 -643 60 0 60 0
2 818 3 817 285 0 285 0 3 -817 2 -818 90 0 90 0 2 223 3 222 390 0 390 0 3
-222 2 -223 392 0 391 0 -6 125 c-18 349 -109 697 -267 1020 -142 290 -285
491 -515 721 -223 224 -430 372 -710 509 -302 148 -594 231 -934 265 -95 9
-386 12 -456 4z"/>
<path d="M4790 5200 l0 -90 65 0 65 0 0 90 0 90 -65 0 -65 0 0 -90z"/>
<path d="M4030 4760 l0 -90 65 0 65 0 0 90 0 90 -65 0 -65 0 0 -90z"/>
<path d="M4030 4370 l0 -90 65 0 65 0 0 90 0 90 -65 0 -65 0 0 -90z"/>
<path d="M5700 3935 l0 -115 60 0 60 0 0 115 0 115 -60 0 -60 0 0 -115z"/>
<path d="M698 3554 c-81 -43 -76 -190 7 -228 16 -7 55 -21 85 -31 89 -28 113
-64 86 -129 -35 -83 -181 -58 -201 35 -5 23 -12 29 -32 29 -23 0 -24 -3 -18
-32 18 -84 72 -128 157 -128 94 0 148 53 148 144 0 86 -23 111 -136 145 -92
27 -108 40 -108 85 0 53 30 79 90 79 39 0 51 -4 71 -27 12 -15 23 -36 23 -47
0 -14 7 -19 25 -19 16 0 25 6 25 15 0 34 -31 86 -62 105 -40 24 -120 26 -160
4z"/>
<path d="M5494 3551 c-38 -23 -77 -74 -93 -120 -19 -57 -14 -189 10 -241 38
-83 88 -120 165 -120 95 0 163 69 183 186 22 125 -20 248 -99 293 -49 27 -124
28 -166 2z m113 -32 c44 -16 80 -57 93 -105 18 -64 9 -198 -16 -231 -68 -91
-163 -88 -218 7 -24 40 -33 158 -17 216 14 52 45 92 85 110 38 16 38 16 73 3z"/>
<path d="M5924 3551 c-38 -23 -77 -74 -93 -120 -19 -57 -14 -189 10 -241 38
-83 88 -120 165 -120 95 0 163 69 183 186 22 125 -20 248 -99 293 -49 27 -124
28 -166 2z m113 -32 c44 -16 80 -57 93 -105 18 -64 9 -198 -16 -231 -68 -91
-163 -88 -218 7 -24 40 -33 158 -17 216 14 52 45 92 85 110 38 16 38 16 73 3z"/>
<path d="M7249 3547 c-70 -47 -99 -117 -99 -237 0 -93 29 -163 86 -206 34 -26
45 -29 114 -29 67 0 82 4 118 28 l42 27 0 95 0 95 -80 0 c-78 0 -80 -1 -80
-24 0 -23 4 -25 53 -28 l52 -3 0 -54 c0 -52 -2 -56 -34 -75 -45 -26 -113 -26
-149 1 -53 39 -67 79 -67 183 0 77 4 101 20 129 64 109 195 97 238 -22 5 -16
37 6 37 25 0 33 -38 85 -74 102 -51 24 -136 21 -177 -7z"/>
<path d="M1010 3320 l0 -240 25 0 c24 0 24 0 27 113 l3 112 100 0 100 0 3
-112 c3 -113 3 -113 27 -113 l25 0 0 240 0 240 -25 0 c-24 0 -24 -1 -27 -97
l-3 -98 -100 0 -100 0 -3 98 c-3 96 -3 97 -27 97 l-25 0 0 -240z"/>
<path d="M1410 3320 l0 -240 150 0 150 0 0 25 0 24 -122 3 -123 3 0 80 0 80
108 3 c106 3 107 3 107 27 0 24 -1 24 -107 27 l-108 3 0 75 0 75 118 3 117 3
0 24 0 25 -145 0 -145 0 0 -240z"/>
<path d="M1780 3320 l0 -240 150 0 150 0 0 25 0 24 -122 3 -123 3 0 80 0 80
108 3 c106 3 107 3 107 27 0 24 -1 24 -107 27 l-108 3 0 75 0 75 118 3 117 3
0 24 0 25 -145 0 -145 0 0 -240z"/>
<path d="M2150 3320 l0 -240 120 0 120 0 0 25 c0 24 -2 24 -92 27 l-93 3 -3
213 -2 212 -25 0 -25 0 0 -240z"/>
<path d="M2635 3323 c50 -235 52 -238 78 -241 30 -4 25 -17 83 236 21 89 40
162 43 162 4 0 26 -90 51 -200 44 -198 44 -200 70 -200 27 0 27 1 78 233 29
127 52 235 52 240 0 4 -11 7 -24 7 -23 0 -25 -7 -62 -194 -21 -107 -42 -192
-46 -190 -4 3 -8 15 -8 27 0 12 -18 96 -39 187 l-38 165 -30 3 c-37 4 -30 22
-83 -207 -22 -96 -42 -176 -44 -179 -2 -2 -9 20 -15 50 -18 89 -61 320 -61
329 0 5 -13 9 -28 9 l-28 0 51 -237z"/>
<path d="M3257 3553 c-6 -10 -147 -459 -147 -467 0 -3 11 -6 24 -6 22 0 27 8
42 58 26 83 26 83 117 80 l80 -3 22 -65 c19 -56 25 -65 48 -68 15 -2 27 0 27
5 0 4 -35 112 -77 240 -76 228 -78 233 -105 233 -15 0 -29 -3 -31 -7z m66
-168 c15 -49 27 -96 27 -102 0 -15 -115 -19 -124 -5 -3 5 3 35 13 68 11 32 24
79 31 103 6 24 15 40 19 35 4 -5 20 -49 34 -99z"/>
<path d="M3490 3535 c0 -23 4 -24 63 -27 l62 -3 3 -212 2 -213 25 0 25 0 2
213 3 212 63 3 c58 3 62 4 62 27 l0 25 -155 0 -155 0 0 -25z"/>
<path d="M3860 3320 l0 -240 150 0 150 0 0 25 0 24 -122 3 -123 3 0 80 0 80
108 3 c106 3 107 3 107 27 0 24 -1 24 -107 27 l-108 3 0 75 0 75 118 3 117 3
0 24 0 25 -145 0 -145 0 0 -240z"/>
<path d="M4230 3320 l0 -240 25 0 c24 0 24 1 27 108 l3 107 47 -1 c60 0 73
-12 132 -124 43 -82 50 -90 77 -90 16 0 29 2 29 5 0 15 -72 146 -94 172 -29
34 -33 53 -12 53 27 0 66 42 77 83 13 51 -1 108 -36 143 -23 23 -31 24 -150
24 l-125 0 0 -240z m240 165 c27 -25 27 -85 -1 -111 -16 -15 -37 -18 -102 -19
l-82 0 -3 64 c-4 95 -5 94 88 89 58 -3 85 -10 100 -23z"/>
<path d="M4630 3320 l0 -240 25 0 c24 0 24 1 27 98 l3 97 85 5 c47 3 95 10
106 17 48 28 69 129 40 197 -24 57 -47 66 -173 66 l-113 0 0 -240z m226 168
c9 -8 18 -33 21 -55 4 -32 1 -45 -19 -68 -23 -26 -30 -29 -99 -29 l-74 -1 -3
74 c-4 106 -5 104 84 99 48 -3 81 -10 90 -20z"/>
<path d="M5000 3320 l0 -240 25 0 c24 0 24 1 27 108 l3 107 47 -1 c60 0 73
-12 132 -124 43 -82 50 -90 77 -90 16 0 29 2 29 5 0 15 -72 146 -94 172 -29
34 -33 53 -12 53 27 0 66 42 77 83 13 51 -1 108 -36 143 -23 23 -31 24 -150
24 l-125 0 0 -240z m240 165 c27 -25 27 -85 -1 -111 -16 -15 -37 -18 -102 -19
l-82 0 -3 64 c-4 95 -5 94 88 89 58 -3 85 -10 100 -23z"/>
<path d="M6260 3320 l0 -240 25 0 c24 0 24 1 27 108 l3 107 93 3 c90 3 92 3
92 27 0 24 -2 24 -92 27 l-93 3 0 75 0 75 108 3 c106 3 107 3 107 27 l0 25
-135 0 -135 0 0 -240z"/>
<path d="M6610 3320 l0 -240 25 0 25 0 0 240 0 240 -25 0 -25 0 0 -240z"/>
<path d="M6760 3320 l0 -240 25 0 25 0 2 183 3 182 100 -182 c92 -168 102
-183 128 -183 l27 0 0 240 0 240 -25 0 -25 0 0 -182 c-1 -216 9 -217 -118 19
-80 149 -89 163 -114 163 l-28 0 0 -240z"/>
<path d="M1034 2744 c17 -68 124 -321 199 -469 151 -297 351 -570 597 -815
257 -258 527 -453 849 -613 455 -227 876 -332 1386 -344 403 -10 742 40 1112
163 880 292 1587 934 1966 1786 46 102 117 290 117 308 0 14 -20 12 -25 -2
-123 -368 -307 -707 -553 -1018 -97 -122 -380 -405 -502 -502 -719 -568 -1610
-811 -2500 -682 -874 127 -1659 605 -2179 1329 -180 251 -356 592 -438 849
-13 41 -38 49 -29 10z"/>
<path d="M1687 2733 c8 -21 41 -90 74 -153 263 -517 681 -929 1203 -1185 259
-127 514 -207 801 -251 169 -26 590 -27 755 -1 296 46 560 129 812 255 426
212 771 513 1033 902 76 113 199 335 240 433 l15 37 -2474 0 -2475 0 16 -37z"/>
</g>
</svg>
